<?xml version="1.0" encoding="utf-8"?>
<!-- Generator: Adobe Illustrator 25.2.1, SVG Export Plug-In . SVG Version: 6.00 Build 0)  -->
<svg version="1.1" id="Layer_1" xmlns="http://www.w3.org/2000/svg" xmlns:xlink="http://www.w3.org/1999/xlink" x="0px" y="0px"
	 viewBox="0 0 167.7 200" style="enable-background:new 0 0 167.7 200;" xml:space="preserve">
<style type="text/css">
	.st0{fill:#FFFFFF;}
</style>
<g>
	<g>
		<path class="st0" d="M144.5,196.8H3.2V20h94c18.5,18.5,28.9,28.9,47.4,47.4V196.8z"/>
		<path d="M147.7,200H0V16.8h98.5L147.7,66V200z M6.4,193.6h134.9v-125L95.8,23.2H6.4V193.6z"/>
	</g>
	<g>
		<path class="st0" d="M164.5,180H23.2V3.2h94c18.5,18.5,28.9,28.9,47.4,47.4V180z"/>
		<path d="M167.7,183.2H20.1V0h98.5l49.2,49.2V183.2z M26.4,176.8h134.9v-125L115.9,6.4H26.4V176.8z"/>
	</g>
	<g>
		<polygon points="164.5,53 114,53 114,3.2 120.4,3.2 120.4,46.6 164.5,46.6 		"/>
	</g>
	<g>
		<path d="M65.5,56.8H40.7V32h24.8V56.8z M45.5,52.1h15.3V36.8H45.5V52.1z"/>
	</g>
	<g>
		<rect x="39.5" y="66.3" width="12.6" height="4.8"/>
	</g>
	<g>
		<rect x="60.1" y="66.3" width="87.7" height="4.8"/>
	</g>
	<g>
		<rect x="39.5" y="86.2" width="12.6" height="4.8"/>
	</g>
	<g>
		<rect x="60.1" y="86.2" width="87.7" height="4.8"/>
	</g>
	<g>
		<rect x="39.5" y="106" width="12.6" height="4.8"/>
	</g>
	<g>
		<rect x="60.1" y="106" width="87.7" height="4.8"/>
	</g>
	<g>
		<rect x="39.5" y="125.9" width="12.6" height="4.8"/>
	</g>
	<g>
		<rect x="60.1" y="125.9" width="87.7" height="4.8"/>
	</g>
	<g>
		<rect x="39.5" y="145.7" width="12.6" height="4.8"/>
	</g>
	<g>
		<rect x="60.1" y="145.7" width="87.7" height="4.8"/>
	</g>
</g>
</svg>
