<?xml version="1.0" encoding="utf-8"?>
<!-- Generator: Adobe Illustrator 26.0.0, SVG Export Plug-In . SVG Version: 6.00 Build 0)  -->
<svg version="1.1" id="Camada_1" xmlns="http://www.w3.org/2000/svg" xmlns:xlink="http://www.w3.org/1999/xlink" x="0px" y="0px"
	 viewBox="0 0 500 140" style="enable-background:new 0 0 500 140;" xml:space="preserve">
<style type="text/css">
	.st0{enable-background:new    ;}
	.st1{fill:#FFFFFF;}
	.st2{fill-rule:evenodd;clip-rule:evenodd;fill:#FFFFFF;}
</style>
<g id="Artboard2">
	<g class="st0">
		<path class="st1" d="M182.1,66.6c4.1,0,7.4,1.1,9.9,3.4c2.4,2.3,3.6,5.4,3.6,9.6v15.9c0,4.1-1.2,7.3-3.6,9.6
			c-2.4,2.3-5.7,3.4-9.9,3.4c-4.1,0-7.4-1.1-9.8-3.3c-2.4-2.2-3.6-5.3-3.7-9.3l8.3-3.5V95c0,2.1,0.5,3.7,1.5,4.7
			c1,1,2.2,1.5,3.7,1.5c1.5,0,2.8-0.5,3.7-1.5c1-1,1.5-2.6,1.5-4.7V79.8c0-2.1-0.5-3.7-1.5-4.6c-1-1-2.2-1.5-3.7-1.5
			c-4.1,0-7.4-1.1-9.9-3.4c-2.4-2.3-3.6-5.4-3.6-9.6v-11c0-4.1,1.2-7.3,3.6-9.6c2.4-2.3,5.7-3.4,9.9-3.4c4.1,0,7.4,1.1,9.8,3.3
			c2.4,2.2,3.6,5.3,3.7,9.3l-8.3,3.5v-2.7c0-2.1-0.5-3.7-1.5-4.7c-1-1-2.2-1.5-3.7-1.5c-1.5,0-2.8,0.5-3.7,1.5c-1,1-1.5,2.6-1.5,4.7
			v10.2c0,2.1,0.5,3.7,1.5,4.7C179.3,66.1,180.6,66.6,182.1,66.6z"/>
		<path class="st1" d="M210.3,100.4h14.3v7.1H202v-70h22.6v7.1h-14.3v21.7h11.8l-3,7.3h-8.9V100.4z"/>
		<path class="st1" d="M267,37.6v70h-8.3V57.5l-9.1,21.1l-9-21.1v50.1h-8.3v-70h0.2h8.1l9,22.1l9.1-22.1H267z"/>
		<path class="st1" d="M291.4,107.6v-70h8.3v62.9h13.4v7.1H291.4z"/>
		<path class="st1" d="M327.3,37.6v70H319v-70H327.3z"/>
		<path class="st1" d="M369.8,37.6v70h-8.3V57.5l-9.1,21.1l-9-21.1v50.1h-8.3v-70h0.2h8.1l9,22.1l9.1-22.1H369.8z"/>
		<path class="st1" d="M385.9,37.6v70h-8.3v-70H385.9z"/>
		<path class="st1" d="M421.4,37.6v7.1h-9.7v62.9h-8.3V44.7h-9.7v-7.1H421.4z"/>
		<path class="st1" d="M435.7,100.4h14.3v7.1h-22.6v-70h22.6v7.1h-14.3v21.7h11.8l-3,7.3h-8.9V100.4z"/>
		<path class="st1" d="M471.3,66.6c4.1,0,7.4,1.1,9.9,3.4c2.4,2.3,3.6,5.4,3.6,9.6v15.9c0,4.1-1.2,7.3-3.6,9.6s-5.7,3.4-9.9,3.4
			s-7.4-1.1-9.8-3.3c-2.4-2.2-3.6-5.3-3.7-9.3l8.3-3.5V95c0,2.1,0.5,3.7,1.5,4.7c1,1,2.2,1.5,3.7,1.5c1.5,0,2.8-0.5,3.7-1.5
			c1-1,1.5-2.6,1.5-4.7V79.8c0-2.1-0.5-3.7-1.5-4.6c-1-1-2.2-1.5-3.7-1.5c-4.1,0-7.4-1.1-9.9-3.4s-3.6-5.4-3.6-9.6v-11
			c0-4.1,1.2-7.3,3.6-9.6c2.4-2.3,5.7-3.4,9.9-3.4s7.4,1.1,9.8,3.3c2.4,2.2,3.6,5.3,3.7,9.3l-8.3,3.5v-2.7c0-2.1-0.5-3.7-1.5-4.7
			c-1-1-2.2-1.5-3.7-1.5c-1.5,0-2.8,0.5-3.7,1.5c-1,1-1.5,2.6-1.5,4.7v10.2c0,2.1,0.5,3.7,1.5,4.7C468.6,66.1,469.8,66.6,471.3,66.6
			z"/>
	</g>
	<g id="Logo">
		<g id="_2849156474848">
			<g>
				<polygon class="st2" points="130.3,53 70.1,135 114,5 				"/>
			</g>
			<g>
				<polygon class="st2" points="10,53.1 70.1,135 26.2,5 				"/>
			</g>
			<g>
				<polygon class="st2" points="86.5,37.2 70,15.1 53.7,37.2 53.7,37.2 70,85.2 				"/>
			</g>
		</g>
	</g>
</g>
</svg>
